<svg width="12" height="23" fill="none" xmlns="http://www.w3.org/2000/svg"><path d="M11.493.328H8.626c-3.219 0-5.3 2.158-5.3 5.5v2.534H.451a.448.448 0 0 0-.319.134.459.459 0 0 0-.132.322v3.673c0 .121.048.237.132.323.085.085.2.133.319.133h2.88v9.27a.46.46 0 0 0 .279.42.446.446 0 0 0 .172.035H7.54c.12 0 .234-.048.319-.133a.459.459 0 0 0 .132-.323v-9.269h3.368a.446.446 0 0 0 .417-.281.458.458 0 0 0 .034-.175V8.818a.462.462 0 0 0-.279-.42.446.446 0 0 0-.172-.036H7.99V6.213c0-1.033.243-1.557 1.574-1.557h1.928c.12 0 .234-.048.319-.134a.459.459 0 0 0 .131-.322V.788a.46.46 0 0 0-.277-.424.446.446 0 0 0-.173-.036z" fill="#454545"/></svg>